<svg id="ФБ" xmlns="http://www.w3.org/2000/svg" width="37.218" height="37.22" viewBox="0 0 37.218 37.22">
  <defs>
    <style>
      .cls-1, .cls-2 {
        fill: #fff;
        fill-rule: evenodd;
      }

      .cls-1 {
        opacity: 0.5;
      }

      .cls-2 {
        opacity: 0.8;
      }
    </style>
  </defs>
  <path id="Обводка" class="cls-1" d="M143.925,1579.24a18.62,18.62,0,1,1-18.619,18.62A18.616,18.616,0,0,1,143.925,1579.24Zm-0.06,2.99a15.69,15.69,0,1,1-15.692,15.69A15.687,15.687,0,0,1,143.865,1582.23Z" transform="translate(-125.313 -1579.25)"/>
  <path id="ФБ-2" data-name="ФБ" class="cls-2" d="M143.865,1582.23a15.69,15.69,0,1,1-15.692,15.69A15.687,15.687,0,0,1,143.865,1582.23Zm0.773,24.99v-9.29h2.743l0.285-3.09h-3.028l0-1.86c0-.89.085-1.26,1.367-1.26h1.764v-3.42h-2.792c-3.294,0-4.082,1.54-4.082,4.34v2.2h-1.889v3.09H140.9v9.29h3.738Z" transform="translate(-125.313 -1579.25)"/>
</svg>
