<svg id="Инста" xmlns="http://www.w3.org/2000/svg" width="37.219" height="37.22" viewBox="0 0 37.219 37.22">
  <defs>
    <style>
      .cls-1, .cls-2 {
        fill: #fff;
        fill-rule: evenodd;
      }

      .cls-1 {
        opacity: 0.5;
      }

      .cls-2 {
        opacity: 0.8;
      }
    </style>
  </defs>
  <path id="Обводка" class="cls-1" d="M94.925,1579.24a18.62,18.62,0,1,1-18.62,18.62A18.616,18.616,0,0,1,94.925,1579.24Zm-0.061,2.99a15.69,15.69,0,1,1-15.692,15.69A15.688,15.688,0,0,1,94.865,1582.23Z" transform="translate(-76.313 -1579.25)"/>
  <path id="Инста-2" data-name="Инста" class="cls-2" d="M94.865,1582.23a15.69,15.69,0,1,1-15.692,15.69A15.688,15.688,0,0,1,94.865,1582.23Zm6.271,23.61a1.745,1.745,0,0,0,1.745-1.75v-12.31a1.743,1.743,0,0,0-1.745-1.74H88.809a1.743,1.743,0,0,0-1.745,1.74v12.31a1.745,1.745,0,0,0,1.745,1.75h12.328Zm-1.375-9.1a4.921,4.921,0,1,1-9.529,0h-1.38v6.78a0.609,0.609,0,0,0,.611.61h11.065a0.609,0.609,0,0,0,.612-0.61v-6.78h-1.38ZM95,1595.13a2.848,2.848,0,1,1,0,5.68A2.84,2.84,0,0,1,95,1595.13Zm3.7-3.31h1.865a0.609,0.609,0,0,1,.611.61v1.86a0.609,0.609,0,0,1-.611.61H98.7a0.609,0.609,0,0,1-.612-0.61v-1.86A0.609,0.609,0,0,1,98.7,1591.82Z" transform="translate(-76.313 -1579.25)"/>
</svg>
