<svg id="ВК" xmlns="http://www.w3.org/2000/svg" width="37.218" height="37.22" viewBox="0 0 37.218 37.22">
  <defs>
    <style>
      .cls-1, .cls-2 {
        fill: #fff;
        fill-rule: evenodd;
      }

      .cls-1 {
        opacity: 0.5;
      }

      .cls-2 {
        opacity: 0.8;
      }
    </style>
  </defs>
  <path id="Обводка_copy" data-name="Обводка copy" class="cls-1" d="M192.925,1579.24a18.62,18.62,0,1,1-18.619,18.62A18.616,18.616,0,0,1,192.925,1579.24Zm-0.06,2.99a15.69,15.69,0,1,1-15.692,15.69A15.687,15.687,0,0,1,192.865,1582.23Z" transform="translate(-174.313 -1579.25)"/>
  <path id="ВК-2" data-name="ВК" class="cls-2" d="M192.865,1582.23a15.69,15.69,0,1,1-15.692,15.69A15.687,15.687,0,0,1,192.865,1582.23Zm5.967,18.25a3.1,3.1,0,0,0-.757-2.2,3.7,3.7,0,0,0-2.016-1.09v-0.07a2.886,2.886,0,0,0,1.371-1.14,3.211,3.211,0,0,0,.5-1.77,3.133,3.133,0,0,0-.362-1.52,2.6,2.6,0,0,0-1.091-1.05,4.522,4.522,0,0,0-1.446-.48,17.993,17.993,0,0,0-2.269-.11h-4.8v13.59H193.4a8.906,8.906,0,0,0,2.331-.25,4.783,4.783,0,0,0,1.686-.86,3.684,3.684,0,0,0,1.032-1.27,3.909,3.909,0,0,0,.383-1.78h0Zm-4.372-5.59a1.517,1.517,0,0,0-.169-0.67,1,1,0,0,0-.527-0.5,2.111,2.111,0,0,0-.8-0.17c-0.308,0-.766-0.01-1.374-0.01h-0.237v2.88h0.43c0.583,0,.994-0.01,1.228-0.02a2.044,2.044,0,0,0,.727-0.19,1.129,1.129,0,0,0,.563-0.53,1.9,1.9,0,0,0,.157-0.79h0Zm0.856,5.53a1.673,1.673,0,0,0-.255-0.99,1.533,1.533,0,0,0-.767-0.54,2.658,2.658,0,0,0-.853-0.13c-0.362-.01-0.849-0.01-1.456-0.01h-0.63v3.4h0.184c0.888,0,1.5-.01,1.842-0.02a2.867,2.867,0,0,0,1.041-.24,1.381,1.381,0,0,0,.68-0.59A1.813,1.813,0,0,0,195.316,1600.42Z" transform="translate(-174.313 -1579.25)"/>
</svg>
